<svg width="112" height="68" viewBox="0 0 112 68" fill="none" xmlns="http://www.w3.org/2000/svg">
<g clip-path="url(#clip0_2350_74)">
<path d="M32.6821 50.9419L20.1272 73.8372L8.21507 74.7997L7 68.3706L18.2543 51.0535L22.369 44.2402L29.3709 45.9497L32.6821 50.9419Z" fill="white" stroke="black" stroke-width="1.5" stroke-miterlimit="10" stroke-linecap="round"/>
<path d="M75.4891 54.0234L87.6574 77.1265L83.3809 82.0575L76.1033 82.3401L67.622 66.1181L64.2097 58.9273L69.4986 54.0307L75.4891 54.0234Z" fill="white" stroke="black" stroke-width="1.5" stroke-miterlimit="10" stroke-linecap="round"/>
<path d="M40.106 43.5046L42.7626 43.1861L43.6827 41.8389L47.5925 35.2139L54.2175 36.4085L54.9408 42.7887L58.779 43.3594L55.8466 51.9393L44.4429 51.7221L40.106 43.5046Z" fill="white" stroke="black" stroke-width="1.5" stroke-miterlimit="10" stroke-linecap="round"/>
<path d="M43.3682 14.9004L52.666 14.2275L65.8747 19.9222L65.9662 26.4212L63.8269 40.617L57.6663 41.0705L47.7135 41.4094L37.5768 39.2296L35.2747 20.3444L43.3682 14.9004Z" fill="white" stroke="black" stroke-width="1.5" stroke-miterlimit="10" stroke-linecap="round"/>
<path d="M43.1641 20.6281L45.3998 19.8828L53.9414 20.3988L53.5975 26.59L48.0941 26.5327L43.3361 27.2779L43.1641 20.6281Z" fill="white" stroke="black" stroke-width="1.5" stroke-miterlimit="10" stroke-linecap="round"/>
<path d="M66.882 28.2525L63.2881 27.5073L59.1314 27.5646L58.8716 21.3734L65.3232 20.8574L67.0119 21.6027L66.882 28.2525Z" fill="white" stroke="black" stroke-width="1.5" stroke-miterlimit="10" stroke-linecap="round"/>
<path d="M47.3386 23.3726C47.3386 22.8502 47.7621 22.4268 48.2845 22.4268C48.8069 22.4268 49.2304 22.8502 49.2304 23.3726C49.2304 23.895 48.8069 24.3185 48.2845 24.3185C47.7621 24.3185 47.3386 23.895 47.3386 23.3726Z" fill="#050505"/>
<path d="M61.3833 24.232C61.3833 23.7096 61.8068 23.2861 62.3292 23.2861C62.8516 23.2861 63.2751 23.7096 63.2751 24.232C63.2751 24.7544 62.8516 25.1779 62.3292 25.1779C61.8068 25.1779 61.3833 24.7544 61.3833 24.232Z" fill="#050505"/>
<path d="M54.5791 16.6692L42.688 18.2007C42.688 18.2007 37.6756 28.1466 36.9283 28.4514C35.671 28.9643 34.0264 20.1391 34.0264 20.1391L33.5593 16.9994C33.5593 16.9994 33.6411 12.124 34.02 11.4714C34.9763 9.82436 42.7129 6.01121 42.7129 6.01121C42.7129 6.01121 41.9248 7.68064 42.0541 7.81929C42.3568 8.14401 45.1641 7.66288 45.1641 7.66288C45.1641 7.66288 51.354 5.51302 52.1789 4.95476C52.3846 4.81562 56.1416 3 56.1416 3L53.6348 6.63184L62.0126 3.4789L64.8953 4.92025L62.373 6.2715L61.8325 7.71285L69.3095 8.61369L72.1021 11.5865L69.6698 11.4063L72.5525 15.2799L73.0029 17.8924L68.6789 16.7213L64.1747 18.3428L54.5791 16.6692Z" fill="white" stroke="black" stroke-width="1.5" stroke-miterlimit="10" stroke-linecap="round"/>
<path d="M65.1453 74.6589L63.1691 82.2004C62.1362 82.0018 61.1127 81.7773 60.1335 81.5365C57.8648 80.9813 55.594 80.5343 53.326 79.9803C51.0545 79.4523 48.8 78.8864 46.5247 78.371C44.0644 77.7907 42.0171 77.9678 39.5691 78.3701C37.3818 78.7299 34.8637 78.5495 32.6638 78.3264C32.4739 78.3078 32.2831 78.2945 32.0918 78.2854C32.2527 76.6488 32.3868 64.4768 32.3868 64.4768L35.5687 59.5049L35.285 53.5327L35.5976 59.7954L29.9449 66.1741L21.2739 62.2768L15.4746 55.8732L19.6658 44.6484L22.684 39.9316L30.2415 40.6683L41.5924 42.9773L43.9235 49.4139L54.7011 50.5597L58.5732 44.3019L70.5773 45.3959L76.5778 47.3566C76.5778 47.3566 78.6001 53.527 78.7176 54.8023C78.7361 55.0034 83.6908 69.7448 83.6908 69.7448L80.2108 72.9204L69.9664 73.9828L65.991 72.5057C65.991 72.5057 67.1126 67.7932 66.614 64.2522C66.2746 61.8422 65.1802 59.6612 65.0578 59.0452C65.0578 59.0452 66.4223 61.8533 66.4561 63.9767C66.461 64.2881 66.807 63.895 66.7811 64.2096C66.513 67.4766 66.3856 70.052 66.3856 70.052L65.1453 74.6589Z" fill="#1B1E1A" stroke="black" stroke-width="1.5" stroke-miterlimit="10"/>
<path d="M33.3718 83.6675L33.5947 76.6431L62.8122 68.0156C62.8122 68.0156 63.552 77.6096 63.4501 80.6315C63.393 82.3262 62.2532 84.5991 62.2532 84.5991L33.3718 83.6675Z" fill="#1B1E1A" stroke="#1B1E1A" stroke-width="1.5" stroke-miterlimit="10" stroke-linecap="round"/>
<path d="M84.4074 81.7842L95.141 65.8441L104.844 62.1865L103.491 56.8225L97.1358 59.0702L103.003 51.5356L98.0296 48.3293L91.8844 55.5429L94.4444 47.3131L88.3121 46.5576L85.2487 58.3478L80.0406 54.2221L77.0224 58.5154L81.572 65.023L75.2942 78.0639L77.6506 84.1548L84.4074 81.7842Z" fill="white" stroke="black" stroke-width="1.5" stroke-miterlimit="10" stroke-linecap="round"/>
<path d="M10.0763 74.0348L9.5354 67.0312L21.367 70.4846L21.4537 72.0168L10.0763 74.0348Z" fill="white" stroke="black" stroke-width="1.5" stroke-miterlimit="10" stroke-linecap="round"/>
<path d="M20.0202 73.047L21.9478 67.9651L19.8019 68.7104L9.39796 66.8398L8.27954 68.0062L8.94293 74.7768L20.0202 73.047Z" fill="white" stroke="white" stroke-width="1.5" stroke-miterlimit="10" stroke-linecap="round"/>
<path d="M59.2341 10.0489L56.8253 9.95261L56.6111 8.60365L56.3291 6.71582L48.1925 6.83731L42.4006 8.66101L42.5541 11.5267L34.3677 19.5992L33.1758 22.5898L33.9681 27.3576L34.7532 27.8357L35.574 27.4218L36.0343 22.6147L43.5917 16.4977L48.9493 16.9652L55.6584 16.7867L56.9609 13.2644L58.7417 13.4249L59.6839 16.6795L64.1912 17.9321L69.6477 17.7928L70.604 9.52054L65.5007 7.52931L60.1441 7.40451L59.2341 10.0489Z" fill="#4CFF8E" stroke="black" stroke-width="1.5" stroke-miterlimit="10" stroke-linecap="round"/>
<path d="M54.9725 8.85742L47.5616 9.30387L44.3472 10.3753L44.7043 13.8576L45.5972 14.8398L49.7045 15.4648L54.4368 15.6434L55.419 12.7861L54.9725 8.85742Z" fill="#6FFF72" stroke="#00FF06" stroke-width="1.5" stroke-miterlimit="10" stroke-linecap="round"/>
<path d="M61.4011 9.125L60.4189 12.0715L61.044 15.8216L64.4369 16.5359L68.3656 16.2681L68.8121 11.1786L65.1512 9.9286L61.4011 9.125Z" fill="#6FFF72" stroke="#00FF06" stroke-width="1.5" stroke-miterlimit="10" stroke-linecap="round"/>
<path d="M44.1397 12.6973L36.1038 20.1082" stroke="#00FF06" stroke-width="1.5" stroke-miterlimit="10" stroke-linecap="round"/>
<path d="M66.9594 20.4221L69.3805 18.3037L66.7173 18.3567L66.9594 20.4221Z" fill="#4CFF8E" stroke="black" stroke-miterlimit="10" stroke-linecap="round"/>
<path d="M41.1875 45.4965L41.2715 43.0166L42.5515 43.06L42.4675 45.5399L41.1875 45.4965Z" fill="#00FF06" stroke="#4CFF8E" stroke-width="1.5" stroke-miterlimit="10"/>
<path d="M41.5903 47.3496L41.6671 45.083L42.0451 45.0958L41.9683 47.3624L41.5903 47.3496Z" fill="#00FF06" stroke="#4CFF8E" stroke-width="1.5" stroke-miterlimit="10"/>
<path d="M41.4071 49.2649L41.1282 46.7992L42.4008 46.6553L42.6797 49.1209L41.4071 49.2649Z" fill="#00FF06" stroke="#4CFF8E" stroke-width="1.5" stroke-miterlimit="10"/>
<path d="M42.0764 51.0392L41.8215 48.7857L42.1973 48.7432L42.4522 50.9967L42.0764 51.0392Z" fill="#00FF06" stroke="#4CFF8E" stroke-width="1.5" stroke-miterlimit="10"/>
<path d="M42.5263 52.9955L41.3984 50.7853L42.5392 50.2031L43.6671 52.4133L42.5263 52.9955Z" fill="#00FF06" stroke="#4CFF8E" stroke-width="1.5" stroke-miterlimit="10"/>
<path d="M43.7767 54.4215L42.7458 52.4014L43.0827 52.2295L44.1136 54.2496L43.7767 54.4215Z" fill="#00FF06" stroke="#4CFF8E" stroke-width="1.5" stroke-miterlimit="10"/>
<path d="M44.5442 56.1862L43.1057 54.1643L44.1493 53.4219L45.5877 55.4438L44.5442 56.1862Z" fill="#00FF06" stroke="#4CFF8E" stroke-width="1.5" stroke-miterlimit="10"/>
<path d="M46.9988 56.3561L44.8774 55.7482L45.0109 55.4971L47.1323 56.105L46.9988 56.3561Z" fill="#00FF06" stroke="#4CFF8E" stroke-width="1.5" stroke-miterlimit="10"/>
<path d="M48.7682 57.0082L46.2881 56.9295L46.3287 55.6494L48.8088 55.7281L48.7682 57.0082Z" fill="#00FF06" stroke="#4CFF8E" stroke-width="1.5" stroke-miterlimit="10"/>
<path d="M50.6208 56.6003L48.354 56.5284L48.366 56.1504L50.6328 56.2223L50.6208 56.6003Z" fill="#00FF06" stroke="#4CFF8E" stroke-width="1.5" stroke-miterlimit="10"/>
<path d="M52.5358 56.7791L50.0708 57.0633L49.9241 55.791L52.3891 55.5068L52.5358 56.7791Z" fill="#00FF06" stroke="#4CFF8E" stroke-width="1.5" stroke-miterlimit="10"/>
<path d="M54.3092 56.1062L52.0563 56.3659L52.0129 55.9902L54.2659 55.7305L54.3092 56.1062Z" fill="#00FF06" stroke="#4CFF8E" stroke-width="1.5" stroke-miterlimit="10"/>
<path d="M57.1221 46.351L57.2061 43.8711L58.4861 43.9145L58.402 46.3944L57.1221 46.351Z" fill="#00FF06" stroke="#4CFF8E" stroke-width="1.5" stroke-miterlimit="10"/>
<path d="M57.4966 48.2041L57.5734 45.9375L57.9514 45.9503L57.8746 48.2169L57.4966 48.2041Z" fill="#00FF06" stroke="#4CFF8E" stroke-width="1.5" stroke-miterlimit="10"/>
<path d="M56.6677 49.9099L57.1129 47.4688L58.3728 47.6985L57.9277 50.1396L56.6677 49.9099Z" fill="#00FF06" stroke="#4CFF8E" stroke-width="1.5" stroke-miterlimit="10"/>
<path d="M56.7678 51.7966L57.1747 49.5654L57.5467 49.6333L57.1399 51.8644L56.7678 51.7966Z" fill="#00FF06" stroke="#4CFF8E" stroke-width="1.5" stroke-miterlimit="10"/>
<path d="M55.4597 53.1278L56.7346 50.999L57.8333 51.657L56.5585 53.7858L55.4597 53.1278Z" fill="#00FF06" stroke="#4CFF8E" stroke-width="1.5" stroke-miterlimit="10"/>
<path d="M54.8899 54.9301L56.0551 52.9844L56.3796 53.1787L55.2144 55.1244L54.8899 54.9301Z" fill="#00FF06" stroke="#4CFF8E" stroke-width="1.5" stroke-miterlimit="10"/>
<path d="M53.3384 56.0205L54.9104 54.1006L55.9013 54.9119L54.3293 56.8318L53.3384 56.0205Z" fill="#00FF06" stroke="#4CFF8E" stroke-width="1.5" stroke-miterlimit="10"/>
<path d="M57.2994 34.8492L55.1647 34.8557L53.2827 34.6455" stroke="black" stroke-width="1.5" stroke-miterlimit="10" stroke-linecap="round"/>
<path d="M46.0126 20.0479L42.8596 20.2055L42.0767 17.4604L46.2002 16.2617L55.0073 17.3239L54.2103 20.5472L46.0126 20.0479Z" fill="white" stroke="black" stroke-width="1.5" stroke-miterlimit="10" stroke-linecap="round"/>
<path d="M58.8121 21.1516L58.4224 18.1035L63.05 17.4756L67.4941 18.5342L67.3602 22.0676L64.9603 20.6787L58.8121 21.1516Z" fill="white" stroke="black" stroke-width="1.5" stroke-miterlimit="10" stroke-linecap="round"/>
<path d="M41.253 78.2052L45.5821 63.2745L51.2466 73.0723L54.8742 60.8477L57.6029 61.3483L60.3366 62.2845L54.9756 78.5301L53.1121 80.3745L47.8215 75.7132L46.4205 81.2995L40.5535 81.0855L41.253 78.2052Z" fill="#4CFF8E" stroke="#6FFF72" stroke-width="1.5" stroke-miterlimit="10" stroke-linecap="round"/>
</g>
<defs>
<clipPath id="clip0_2350_74">
<rect width="112" height="68" fill="white"/>
</clipPath>
</defs>
</svg>
